{
  "asset": {
    "version": "2.0",
    "generator": "LCWebGL bootstrap"
  },
  "scene": 0,
  "scenes": [
    {
      "nodes": [0],
      "name": "SampleQuadScene"
    }
  ],
  "nodes": [
    {
      "mesh": 0,
      "name": "SampleQuad"
    }
  ],
  "meshes": [
    {
      "name": "QuadMesh",
      "primitives": [
        {
          "attributes": {
            "POSITION": 0,
            "NORMAL": 1
          },
          "indices": 2,
          "mode": 4
        }
      ]
    }
  ],
  "buffers": [
    {
      "byteLength": 108,
      "uri": "data:application/octet-stream;base64,"
    }
  ],
  "bufferViews": [
    {
      "buffer": 0,
      "byteOffset": 0,
      "byteLength": 48,
      "target": 34962
    },
    {
      "buffer": 0,
      "byteOffset": 48,
      "byteLength": 48,
      "target": 34962
    },
    {
      "buffer": 0,
      "byteOffset": 96,
      "byteLength": 12,
      "target": 34963
    }
  ],
  "accessors": [
    {
      "bufferView": 0,
      "componentType": 5126,
      "count": 4,
      "type": "VEC3",
      "min": [-0.5, 0.0, -0.5],
      "max": [0.5, 0.0, 0.5]
    },
    {
      "bufferView": 1,
      "componentType": 5126,
      "count": 4,
      "type": "VEC3"
    },
    {
      "bufferView": 2,
      "componentType": 5123,
      "count": 6,
      "type": "SCALAR"
    }
  ]
}
